<?xml version="1.0" encoding="UTF-8"?>
<svg xmlns="http://www.w3.org/2000/svg" xmlns:xlink="http://www.w3.org/1999/xlink" viewBox="0 0 484.19 363.36">
  <defs>
    <style>
      .cls-1 {
        fill: url(#Degradado_sin_nombre_73);
      }

      .cls-1, .cls-2, .cls-3 {
        stroke-width: 0px;
      }

      .cls-4 {
        mix-blend-mode: multiply;
        opacity: .2;
      }

      .cls-2 {
        fill: url(#Degradado_sin_nombre_67);
      }

      .cls-5 {
        isolation: isolate;
      }

      .cls-3 {
        fill: url(#Degradado_sin_nombre_75);
      }
    </style>
    <radialGradient id="Degradado_sin_nombre_67" data-name="Degradado sin nombre 67" cx="242.09" cy="474.9" fx="242.09" fy="474.9" r="273.7" gradientTransform="translate(0 295.12) scale(1 .09)" gradientUnits="userSpaceOnUse">
      <stop offset="0" stop-color="#000"/>
      <stop offset="1" stop-color="#000" stop-opacity="0"/>
    </radialGradient>
    <linearGradient id="Degradado_sin_nombre_75" data-name="Degradado sin nombre 75" x1="94.86" y1="161.21" x2="389.33" y2="161.21" gradientUnits="userSpaceOnUse">
      <stop offset="0" stop-color="#ba55ff"/>
      <stop offset="0" stop-color="#b753fd"/>
      <stop offset=".09" stop-color="#943de3"/>
      <stop offset=".17" stop-color="#772bcd"/>
      <stop offset=".27" stop-color="#5e1cbb"/>
      <stop offset=".38" stop-color="#4c10ad"/>
      <stop offset=".51" stop-color="#3e08a3"/>
      <stop offset=".67" stop-color="#37039d"/>
      <stop offset="1" stop-color="#35029c"/>
    </linearGradient>
    <linearGradient id="Degradado_sin_nombre_73" data-name="Degradado sin nombre 73" x1="120.65" y1="161.21" x2="368.19" y2="161.21" gradientUnits="userSpaceOnUse">
      <stop offset="0" stop-color="#64ebec"/>
      <stop offset=".11" stop-color="#5bc4e2"/>
      <stop offset=".26" stop-color="#5197d6"/>
      <stop offset=".41" stop-color="#4972cc"/>
      <stop offset=".56" stop-color="#4356c5"/>
      <stop offset=".71" stop-color="#3e41c0"/>
      <stop offset=".85" stop-color="#3b35bd"/>
      <stop offset=".99" stop-color="#3b31bc"/>
    </linearGradient>
  </defs>
  <g class="cls-5">
    <g id="OBJECTS">
      <g>
        <g class="cls-4">
          <ellipse class="cls-2" cx="242.09" cy="336.95" rx="242.09" ry="26.41"/>
        </g>
        <g>
          <path class="cls-3" d="m389.33,70.57l-10.75,6.98c-13.62-19.94-31.2-35.7-52.75-47.29-21.56-11.58-44.81-17.37-69.77-17.37-20.06,0-39.26,3.91-57.59,11.73-18.33,7.82-34.12,18.36-47.38,31.61-13.25,13.26-23.79,29.05-31.61,47.38-7.82,18.33-11.73,37.53-11.73,57.59s3.91,39.26,11.73,57.58c7.82,18.33,18.36,34.12,31.61,47.38,13.26,13.25,29.05,23.79,47.38,31.61,18.33,7.83,37.52,11.73,57.59,11.73,24.96,0,48.24-5.85,69.85-17.55,21.61-11.7,39.23-27.52,52.84-47.46l10.39,7.88c-14.81,21.5-33.91,38.54-57.32,51.14-23.4,12.6-48.66,18.9-75.77,18.9-21.85,0-42.72-4.27-62.6-12.81-19.88-8.54-37.02-20-51.41-34.39-14.39-14.39-25.86-31.52-34.39-51.41-8.54-19.88-12.81-40.75-12.81-62.6s4.27-42.72,12.81-62.6c8.54-19.88,20-37.01,34.39-51.41,14.39-14.39,31.52-25.85,51.41-34.39C213.35,4.27,234.21,0,256.07,0c27.23,0,52.54,6.33,75.95,18.99,23.4,12.66,42.51,29.86,57.32,51.59Zm-42.63,29.02l-10.75,6.98c-8.84-12.89-20.27-23.13-34.3-30.72-14.03-7.58-29.23-11.37-45.58-11.37-17.55,0-33.74,4.33-48.54,12.99-14.81,8.66-26.54,20.39-35.2,35.2-8.66,14.81-12.99,30.99-12.99,48.54s4.33,33.73,12.99,48.54c8.66,14.81,20.39,26.54,35.2,35.2,14.81,8.66,30.99,12.99,48.54,12.99,16.36,0,31.58-3.82,45.67-11.47,14.09-7.64,25.55-17.97,34.39-30.98l10.57,7.34c-10.03,14.81-23.02,26.51-38.96,35.11-15.94,8.6-33.17,12.9-51.68,12.9-19.82,0-38.15-4.9-54.99-14.69-16.84-9.79-30.15-23.11-39.95-39.94-9.79-16.83-14.69-35.16-14.69-54.99s4.89-38.15,14.69-54.99c9.79-16.84,23.11-30.15,39.95-39.95,16.84-9.79,35.16-14.69,54.99-14.69,18.51,0,35.73,4.3,51.68,12.9,15.94,8.6,28.93,20.3,38.96,35.11Z"/>
          <path class="cls-1" d="m368.19,85.26l-10.75,6.99c-11.22-16.48-25.76-29.52-43.62-39.14-17.85-9.61-37.11-14.42-57.76-14.42-16.6,0-32.48,3.22-47.65,9.67-15.16,6.45-28.21,15.14-39.14,26.06-10.93,10.93-19.61,23.97-26.06,39.14-6.45,15.17-9.67,31.05-9.67,47.65s3.22,32.48,9.67,47.65c6.45,15.16,15.13,28.21,26.06,39.14,10.93,10.92,23.97,19.61,39.14,26.06,15.16,6.45,31.05,9.67,47.65,9.67,20.78,0,40.06-4.84,57.86-14.51,17.79-9.68,32.3-22.75,43.52-39.23l10.39,7.7c-12.42,18.16-28.45,32.51-48.09,43.08-19.64,10.57-40.87,15.85-63.67,15.85-24.48,0-47.11-6.06-67.89-18.18-20.78-12.12-37.23-28.57-49.35-49.34-12.12-20.78-18.18-43.4-18.18-67.89s6.06-47.11,18.18-67.89c12.12-20.78,28.57-37.23,49.35-49.35,20.78-12.12,43.4-18.18,67.89-18.18,22.93,0,44.24,5.34,63.94,16.03,19.7,10.69,35.76,25.16,48.18,43.43Zm-42.81,29.02l-10.57,6.98c-6.45-9.55-14.84-17.11-25.17-22.66-10.33-5.55-21.52-8.33-33.58-8.33-19.59,0-36.3,6.93-50.15,20.78-13.85,13.85-20.78,30.57-20.78,50.15s6.92,36.3,20.78,50.15c13.85,13.85,30.57,20.78,50.15,20.78,12.06,0,23.25-2.8,33.58-8.42,10.33-5.61,18.72-13.19,25.17-22.75l10.39,7.52c-7.64,11.22-17.56,20.12-29.73,26.69-12.18,6.57-25.32,9.85-39.41,9.85-11.35,0-22.18-2.21-32.51-6.63-10.33-4.42-19.26-10.39-26.78-17.92-7.52-7.52-13.49-16.44-17.91-26.78-4.42-10.33-6.63-21.16-6.63-32.51s2.21-22.18,6.63-32.51c4.42-10.33,10.39-19.26,17.91-26.78,7.52-7.52,16.45-13.49,26.78-17.92,10.33-4.42,21.16-6.63,32.51-6.63,14.21,0,27.41,3.32,39.59,9.94,12.18,6.63,22.09,15.61,29.73,26.96Z"/>
        </g>
      </g>
    </g>
  </g>
</svg>